<svg width="2744" height="1564" viewBox="0 0 2744 1564" fill="none" xmlns="http://www.w3.org/2000/svg">
<rect width="2744" height="1564" fill="white"/>
<path d="M1447.74 608.608L1447.74 585.095L1447.74 514.677C1447.74 510.698 1446.05 507.201 1443.52 504.669C1440.87 502.137 1437.25 500.449 1433.51 500.449L1386.61 500.449C1382.63 500.449 1379.13 502.137 1376.6 504.669C1374.07 507.201 1372.38 510.818 1372.38 514.677L1372.38 585.095C1372.38 590.159 1368.16 594.379 1363.1 594.379L1292.68 594.379C1288.7 594.379 1285.2 596.067 1282.67 598.6C1280.14 601.132 1278.45 604.629 1278.45 608.608L1278.45 655.513C1278.45 659.371 1280.14 662.868 1282.67 665.521C1285.2 668.053 1288.7 669.741 1292.68 669.741L1347.78 669.741L1347.78 688.31L1292.8 688.31C1283.75 688.31 1275.56 684.572 1269.77 678.664C1263.86 672.756 1260.12 664.556 1260.12 655.633L1260.12 608.728C1260.12 599.685 1263.86 591.486 1269.77 585.698C1275.56 579.789 1283.88 576.051 1292.8 576.051L1353.93 576.051L1353.93 514.918C1353.93 505.875 1357.67 497.796 1363.58 491.887C1369.37 485.979 1377.69 482.241 1386.61 482.241L1433.51 482.241C1442.56 482.241 1450.64 485.858 1456.54 491.887C1462.45 497.796 1466.19 505.995 1466.19 514.918L1466.19 585.336L1466.19 608.849C1466.19 630.794 1457.15 650.69 1442.68 665.039C1428.33 679.508 1408.43 688.551 1386.49 688.551L1378.41 688.551L1378.41 669.982L1386.49 669.982C1403.25 669.982 1418.56 662.989 1429.65 652.016C1440.75 640.682 1447.74 625.368 1447.74 608.608Z" fill="#00E1F0"/>
<path d="M1372.38 655.513L1372.38 679.026L1372.38 749.323C1372.38 753.302 1374.07 756.799 1376.6 759.331C1379.13 761.984 1382.63 763.551 1386.61 763.551L1433.51 763.551C1437.37 763.551 1440.87 761.984 1443.52 759.331C1446.05 756.799 1447.74 753.302 1447.74 749.323L1447.74 679.026C1447.74 673.841 1451.84 669.741 1457.03 669.741L1527.32 669.741C1531.3 669.741 1534.8 668.053 1537.33 665.521C1539.98 662.868 1541.55 659.251 1541.55 655.513L1541.55 608.608C1541.55 604.629 1539.98 601.132 1537.33 598.6C1534.8 596.068 1531.3 594.379 1527.32 594.379L1472.46 594.379L1472.46 575.81L1527.32 575.81C1536.37 575.81 1544.57 579.428 1550.47 585.457C1556.26 591.365 1560 599.564 1560 608.608L1560 655.513C1560 664.556 1556.26 672.635 1550.47 678.543C1544.57 684.452 1536.25 688.19 1527.32 688.19L1466.31 688.19L1466.31 749.323C1466.31 758.487 1462.69 766.566 1456.66 772.474C1450.64 778.262 1442.56 782 1433.51 782L1386.61 782C1377.56 782 1369.36 778.262 1363.58 772.474C1357.67 766.566 1353.93 758.367 1353.93 749.323L1353.93 679.026L1353.93 655.513C1353.93 633.568 1362.85 613.672 1377.32 599.203C1391.79 584.733 1411.69 575.81 1433.63 575.81L1441.59 575.81L1441.59 594.379L1433.63 594.379C1416.75 594.379 1401.56 601.252 1390.35 612.346C1379.25 623.439 1372.38 638.632 1372.38 655.513Z" fill="#0D52D1"/>
<path d="M1132.24 971V899.48H1144.72L1171.5 935.864H1165.55L1191.76 899.48H1204.24V971H1191.09V914.36L1196.18 915.608L1169.01 951.8H1167.47L1140.98 915.608L1145.3 914.36V971H1132.24ZM1241.64 972.152C1236.26 972.152 1231.56 970.936 1227.53 968.504C1223.5 966.072 1220.36 962.776 1218.12 958.616C1215.88 954.456 1214.76 949.848 1214.76 944.792C1214.76 939.544 1215.88 934.904 1218.12 930.872C1220.42 926.776 1223.53 923.544 1227.43 921.176C1231.4 918.808 1235.82 917.624 1240.68 917.624C1244.78 917.624 1248.36 918.296 1251.43 919.64C1254.57 920.984 1257.22 922.84 1259.4 925.208C1261.58 927.576 1263.24 930.296 1264.39 933.368C1265.54 936.376 1266.12 939.64 1266.12 943.16C1266.12 944.056 1266.06 944.984 1265.93 945.944C1265.86 946.904 1265.7 947.736 1265.45 948.44H1225.13V938.84H1258.34L1252.39 943.352C1252.97 940.408 1252.81 937.784 1251.91 935.48C1251.08 933.176 1249.67 931.352 1247.69 930.008C1245.77 928.664 1243.43 927.992 1240.68 927.992C1238.06 927.992 1235.72 928.664 1233.67 930.008C1231.62 931.288 1230.06 933.208 1228.97 935.768C1227.94 938.264 1227.56 941.304 1227.82 944.888C1227.56 948.088 1227.98 950.936 1229.06 953.432C1230.22 955.864 1231.88 957.752 1234.06 959.096C1236.3 960.44 1238.86 961.112 1241.74 961.112C1244.62 961.112 1247.05 960.504 1249.03 959.288C1251.08 958.072 1252.68 956.44 1253.83 954.392L1264.01 959.384C1262.98 961.88 1261.38 964.088 1259.21 966.008C1257.03 967.928 1254.44 969.432 1251.43 970.52C1248.49 971.608 1245.22 972.152 1241.64 972.152ZM1299.94 972.152C1294.88 972.152 1290.37 970.968 1286.4 968.6C1282.44 966.168 1279.3 962.872 1277 958.712C1274.69 954.552 1273.54 949.944 1273.54 944.888C1273.54 939.768 1274.69 935.16 1277 931.064C1279.3 926.968 1282.44 923.704 1286.4 921.272C1290.44 918.84 1294.92 917.624 1299.84 917.624C1303.81 917.624 1307.33 918.424 1310.4 920.024C1313.54 921.56 1316 923.736 1317.8 926.552L1315.88 929.144V898.328H1328.45V971H1316.55V960.92L1317.89 963.416C1316.1 966.232 1313.6 968.408 1310.4 969.944C1307.2 971.416 1303.72 972.152 1299.94 972.152ZM1301.28 960.632C1304.16 960.632 1306.69 959.96 1308.87 958.616C1311.04 957.272 1312.74 955.416 1313.96 953.048C1315.24 950.68 1315.88 947.96 1315.88 944.888C1315.88 941.88 1315.24 939.192 1313.96 936.824C1312.74 934.392 1311.04 932.504 1308.87 931.16C1306.69 929.816 1304.16 929.144 1301.28 929.144C1298.47 929.144 1295.94 929.848 1293.7 931.256C1291.46 932.6 1289.7 934.456 1288.42 936.824C1287.2 939.128 1286.6 941.816 1286.6 944.888C1286.6 947.96 1287.2 950.68 1288.42 953.048C1289.7 955.416 1291.46 957.272 1293.7 958.616C1295.94 959.96 1298.47 960.632 1301.28 960.632ZM1340.15 971V918.776H1352.73V971H1340.15ZM1340.15 912.92V899.48H1352.73V912.92H1340.15ZM1378.93 971V908.12H1359.54V899.48H1407.54V908.12H1388.44V971H1378.93ZM1409.83 971V919.256H1418.57V928.76L1417.61 927.416C1418.83 924.472 1420.68 922.296 1423.18 920.888C1425.67 919.416 1428.71 918.68 1432.3 918.68H1435.47V927.128H1430.95C1427.31 927.128 1424.36 928.28 1422.12 930.584C1419.88 932.824 1418.76 936.024 1418.76 940.184V971H1409.83ZM1458.56 972.152C1455.17 972.152 1452.16 971.544 1449.54 970.328C1446.98 969.048 1444.96 967.32 1443.49 965.144C1442.02 962.904 1441.28 960.344 1441.28 957.464C1441.28 954.712 1441.86 952.248 1443.01 950.072C1444.23 947.832 1446.08 945.944 1448.58 944.408C1451.14 942.872 1454.34 941.784 1458.18 941.144L1477.38 937.976V945.464L1460.2 948.344C1456.87 948.92 1454.44 949.976 1452.9 951.512C1451.43 953.048 1450.69 954.936 1450.69 957.176C1450.69 959.288 1451.52 961.048 1453.19 962.456C1454.92 963.864 1457.06 964.568 1459.62 964.568C1462.88 964.568 1465.7 963.896 1468.07 962.552C1470.5 961.144 1472.39 959.256 1473.73 956.888C1475.14 954.52 1475.84 951.896 1475.84 949.016V935.864C1475.84 933.048 1474.79 930.776 1472.68 929.048C1470.63 927.256 1467.91 926.36 1464.52 926.36C1461.57 926.36 1458.95 927.128 1456.64 928.664C1454.4 930.136 1452.74 932.12 1451.65 934.616L1443.88 930.584C1444.84 928.216 1446.37 926.104 1448.48 924.248C1450.6 922.328 1453.06 920.824 1455.88 919.736C1458.69 918.648 1461.64 918.104 1464.71 918.104C1468.68 918.104 1472.16 918.872 1475.17 920.408C1478.18 921.88 1480.52 923.96 1482.18 926.648C1483.91 929.272 1484.77 932.344 1484.77 935.864V971H1476.04V961.208L1477.67 961.784C1476.58 963.832 1475.11 965.624 1473.25 967.16C1471.4 968.696 1469.22 969.912 1466.72 970.808C1464.23 971.704 1461.51 972.152 1458.56 972.152ZM1522.62 972.152C1517.56 972.152 1513.05 970.968 1509.08 968.6C1505.18 966.232 1502.1 963 1499.86 958.904C1497.62 954.808 1496.5 950.2 1496.5 945.08C1496.5 939.896 1497.62 935.288 1499.86 931.256C1502.1 927.224 1505.18 924.024 1509.08 921.656C1513.05 919.288 1517.56 918.104 1522.62 918.104C1526.01 918.104 1529.18 918.712 1532.12 919.928C1535.06 921.144 1537.66 922.776 1539.9 924.824C1542.14 926.872 1543.77 929.272 1544.79 932.024L1536.82 935.864C1535.61 933.176 1533.75 931 1531.26 929.336C1528.76 927.608 1525.88 926.744 1522.62 926.744C1519.48 926.744 1516.63 927.544 1514.07 929.144C1511.58 930.744 1509.59 932.92 1508.12 935.672C1506.65 938.424 1505.91 941.592 1505.91 945.176C1505.91 948.632 1506.65 951.768 1508.12 954.584C1509.59 957.336 1511.58 959.512 1514.07 961.112C1516.63 962.712 1519.48 963.512 1522.62 963.512C1525.88 963.512 1528.76 962.68 1531.26 961.016C1533.75 959.288 1535.61 957.016 1536.82 954.2L1544.79 958.232C1543.77 960.92 1542.14 963.32 1539.9 965.432C1537.66 967.48 1535.06 969.112 1532.12 970.328C1529.18 971.544 1526.01 972.152 1522.62 972.152ZM1556.46 971V898.328H1565.39V948.152L1561.74 947.288L1589.19 919.256H1600.62L1580.75 940.088L1601.96 971H1591.4L1572.01 942.968L1577.58 942.68L1562.51 958.424L1565.39 951.896V971H1556.46ZM1632.86 972.152C1627.87 972.152 1623.42 970.968 1619.52 968.6C1615.61 966.232 1612.54 963 1610.3 958.904C1608.06 954.744 1606.94 950.104 1606.94 944.984C1606.94 939.8 1608.03 935.192 1610.2 931.16C1612.44 927.128 1615.45 923.96 1619.23 921.656C1623.07 919.288 1627.36 918.104 1632.09 918.104C1635.93 918.104 1639.32 918.808 1642.27 920.216C1645.28 921.56 1647.8 923.416 1649.85 925.784C1651.96 928.088 1653.56 930.744 1654.65 933.752C1655.8 936.696 1656.38 939.768 1656.38 942.968C1656.38 943.672 1656.32 944.472 1656.19 945.368C1656.12 946.2 1656.03 947 1655.9 947.768H1613.47V940.088H1650.72L1646.49 943.544C1647.07 940.216 1646.75 937.24 1645.53 934.616C1644.32 931.992 1642.52 929.912 1640.16 928.376C1637.79 926.84 1635.1 926.072 1632.09 926.072C1629.08 926.072 1626.33 926.84 1623.84 928.376C1621.34 929.912 1619.39 932.12 1617.98 935C1616.64 937.816 1616.09 941.176 1616.35 945.08C1616.09 948.856 1616.67 952.184 1618.08 955.064C1619.55 957.88 1621.6 960.088 1624.22 961.688C1626.91 963.224 1629.82 963.992 1632.96 963.992C1636.41 963.992 1639.32 963.192 1641.69 961.592C1644.06 959.992 1645.98 957.944 1647.45 955.448L1654.94 959.288C1653.92 961.656 1652.32 963.832 1650.14 965.816C1648.03 967.736 1645.5 969.272 1642.56 970.424C1639.68 971.576 1636.44 972.152 1632.86 972.152ZM1668.02 971V919.256H1676.76V928.76L1675.8 927.416C1677.01 924.472 1678.87 922.296 1681.37 920.888C1683.86 919.416 1686.9 918.68 1690.49 918.68H1693.65V927.128H1689.14C1685.49 927.128 1682.55 928.28 1680.31 930.584C1678.07 932.824 1676.95 936.024 1676.95 940.184V971H1668.02Z" fill="#003CBF"/>
</svg>
