<svg width="65" height="65" viewBox="0 0 65 65" fill="none" xmlns="http://www.w3.org/2000/svg">
<path d="M40.6773 27.4317L40.6773 7.07997C40.6773 6.21783 40.3116 5.46019 39.763 4.91156C39.1882 4.36293 38.4044 3.99717 37.5945 3.99717L27.4318 3.99717C26.5696 3.99717 25.812 4.36293 25.2634 4.91156C24.7147 5.46019 24.349 6.24396 24.349 7.07997V22.3372C24.349 23.4345 23.4346 24.3489 22.3373 24.3489L7.08007 24.3489C6.21794 24.3489 5.4603 24.7146 4.91166 25.2633C4.36303 25.8119 3.99728 26.5695 3.99728 27.4317L3.99727 37.5944C3.99727 38.4305 4.36303 39.1881 4.91166 39.7629C5.4603 40.3115 6.21793 40.6772 7.08007 40.6772L19.0194 40.6772V44.7006H7.1062C5.14679 44.7006 3.37027 43.8907 2.11625 42.6105C0.836102 41.3304 0.0262144 39.5538 0.0262146 37.6206L0.0262155 27.4578C0.0262157 25.4984 0.836103 23.7219 2.11625 22.4678C3.37027 21.1877 5.17292 20.3778 7.1062 20.3778L20.3518 20.3778V7.13222C20.3518 5.17281 21.1617 3.42241 22.4418 2.14226C23.6958 0.862118 25.4985 0.0522307 27.4318 0.0522308L37.5945 0.0522317C39.5539 0.0522319 41.3044 0.835994 42.5845 2.14227C43.8646 3.42241 44.6745 5.19894 44.6745 7.13222V27.4839C44.6745 32.2387 42.7151 36.5494 39.5801 39.6584C36.4711 42.7934 32.1605 44.7528 27.4056 44.7528H25.6552L25.6552 40.7295H27.4056C31.0371 40.7295 34.355 39.2142 36.7585 36.8368C39.1621 34.381 40.6773 31.0631 40.6773 27.4317Z" fill="#00E1F0"/>
<path d="M24.3489 37.5944L24.3489 57.92C24.3489 58.7822 24.7146 59.5398 25.2633 60.0884C25.8119 60.6632 26.5695 61.0028 27.4317 61.0028L37.5944 61.0028C38.4305 61.0028 39.1881 60.6632 39.7629 60.0884C40.3115 59.5398 40.6772 58.7822 40.6772 57.92L40.6772 42.6889C40.6773 41.5655 41.5655 40.6772 42.6889 40.6772H57.92C58.7822 40.6772 59.5398 40.3115 60.0884 39.7629C60.6632 39.1881 61.0028 38.4043 61.0028 37.5945V27.4317C61.0028 26.5695 60.6632 25.8119 60.0884 25.2633C59.5398 24.7146 58.7822 24.3489 57.92 24.3489L46.033 24.3489V20.3256H57.92C59.8794 20.3256 61.6559 21.1093 62.9361 22.4156C64.1901 23.6957 65 25.4723 65 27.4317V37.5945C65 39.5539 64.1901 41.3043 62.9361 42.5844C61.6559 43.8645 59.8533 44.6744 57.92 44.6744H44.7006V57.92C44.7006 59.9055 43.9168 61.6559 42.6105 62.9361C41.3043 64.1901 39.5539 65 37.5944 65L27.4317 65C25.4723 65 23.6957 64.1901 22.4417 62.9361C21.1616 61.6559 20.3517 59.8794 20.3517 57.92L20.3517 37.5944C20.3517 32.8396 22.285 28.5289 25.42 25.3939C28.5551 22.2588 32.8658 20.3256 37.6206 20.3256H39.3449V24.3489H37.6206C33.963 24.3489 30.6712 25.838 28.2416 28.2416C25.838 30.6451 24.3489 33.9369 24.3489 37.5944Z" fill="#0D52D1"/>
</svg>
